# xmcd CD database file generated by MAGIX_Freedb v0.9beta0
# 
# Track frame offsets:
#      150
#      15292
#      29265
#      41130
#      56372
#      68727
#      84827
#      98302
#      113852
#      129657
#      142330
#      156152
#      175510
#      190067
#      206205
#      217320
# 
# Disc length: 3051 seconds
# 
# Revision: 1 
# Processed by: cddbd v1.5.2PL0 Copyright (c) Steve Scherf et al.
# Submitted via: MAGIX_Freedb v0.9beta0
# 
DISCID=d90be910
DTITLE=Leste Aom - Gans Geweit
DYEAR=1900
DGENRE=limburgse muziek
TTITLE0=Leste Aom - Gans geweit
TTITLE1=Leste Aom - Ingelke
TTITLE2=Leste Aom - Nonnevot
TTITLE3=Leste Aom - Alles is angers
TTITLE4=Leste Aom - Jan
TTITLE5=Leste Aom - Ich hoeb ein sjruufke los
TTITLE6=Leste Aom - Kom maar biej mich!!
TTITLE7=Leste Aom - Leefde, zunj en plezeer
TTITLE8=Leste Aom - Eeder ziene ingel
TTITLE9=Leste Aom - Geldj zat
TTITLE10=Leste Aom - 't Strandj
TTITLE11=Leste Aom - Kal plat
TTITLE12=Leste Aom - Piersing
TTITLE13=Leste Aom - Loat gaon!!
TTITLE14=Leste Aom - Ich zeen dich noch neethange!!
TTITLE15=Leste Aom - Toet de leste aom
EXTD=
EXTT0=
EXTT1=
EXTT2=
EXTT3=
EXTT4=
EXTT5=
EXTT6=
EXTT7=
EXTT8=
EXTT9=
EXTT10=
EXTT11=
EXTT12=
EXTT13=
EXTT14=
EXTT15=
PLAYORDER=
